<?xml version="1.0" encoding="utf-8"?>
<!-- Generator: Adobe Illustrator 17.0.0, SVG Export Plug-In . SVG Version: 6.00 Build 0)  -->
<!DOCTYPE svg PUBLIC "-//W3C//DTD SVG 1.1//EN" "http://www.w3.org/Graphics/SVG/1.1/DTD/svg11.dtd">
<svg version="1.1" id="Layer_1" xmlns="http://www.w3.org/2000/svg" xmlns:xlink="http://www.w3.org/1999/xlink" x="0px" y="0px"
	 width="297.45px" height="419.876px" viewBox="0 0 297.45 419.876" enable-background="new 0 0 297.45 419.876"
	 xml:space="preserve">
<g>
	<title>Slice 1</title>
	<description>Created with Sketch (http://www.bohemiancoding.com/sketch)</description>
	<g id="Page_1_4_">
		<g id="Layer_1_4_">
			<path id="Shape_36_" fill="#FFFFFF" d="M233.093,15.546h-24.688l25.674,27.859v13.261h-52.882V41.14h25.669l-25.669-27.86V0
				h51.896V15.546L233.093,15.546z M170.715,15.546h-24.688L171.7,43.405v13.261h-52.882V41.14h25.672l-25.672-27.86V0h51.897
				V15.546L170.715,15.546z M108.947,16.177h-26.64V40.49h26.64v16.176H63.373V0h45.574V16.177L108.947,16.177z"/>
			<path id="Shape_35_" fill="#1572B6" d="M27.071,386.155L0,82.535h297.45l-27.096,303.571l-121.811,33.77L27.071,386.155z"/>
			<path id="Shape_34_" fill="#33A9DC" d="M148.727,394.064l98.427-27.288l23.157-259.415H148.727V394.064z"/>
			<g id="Group_4_" transform="translate(55.000000, 142.000000)">
				<path id="Shape_33_" fill="#FFFFFF" d="M93.726,75.361h49.275l3.403-38.132H93.726V-0.01h0.129h93.246l-0.893,9.991
					l-9.152,102.616h-83.33V75.361z"/>
				<path id="Shape_32_" fill="#EBEBEB" d="M93.949,172.069l-0.163,0.046l-41.472-11.199l-2.652-29.698H29.511H12.283l5.216,58.467
					l76.278,21.176l0.172-0.048V172.069z"/>
				<path id="Shape_31_" fill="#FFFFFF" d="M139.836,111.021l-4.484,49.87l-41.532,11.21v38.742l76.339-21.158l0.56-6.29
					l6.478-72.374H139.836z"/>
				<path id="Shape_30_" fill="#EBEBEB" d="M93.855-0.01v23.128v14.019v0.092H4.027H3.908l-0.747-8.37L1.464,9.981L0.574-0.01
					H93.855z"/>
				<path id="Shape_29_" fill="#EBEBEB" d="M93.726,75.365v23.129v14.017v0.092H52.898h-0.119l-0.746-8.369l-1.698-18.878
					l-0.89-9.991H93.726z"/>
			</g>
		</g>
	</g>
</g>
</svg>
