<?xml version="1.0" encoding="utf-8"?>
<!-- Generator: Adobe Illustrator 17.0.0, SVG Export Plug-In . SVG Version: 6.00 Build 0)  -->
<!DOCTYPE svg PUBLIC "-//W3C//DTD SVG 1.1//EN" "http://www.w3.org/Graphics/SVG/1.1/DTD/svg11.dtd">
<svg version="1.1" id="Layer_1" xmlns="http://www.w3.org/2000/svg" xmlns:xlink="http://www.w3.org/1999/xlink" x="0px" y="0px"
	 width="612.023px" height="255.628px" viewBox="0 0 612.023 255.628" enable-background="new 0 0 612.023 255.628"
	 xml:space="preserve">
<g>
	<path fill="#FFFFFF" d="M366.783,87.008c-13.419,0-23.412,6.589-23.412,22.448c0,11.948,6.586,20.242,22.69,20.242
		c13.649,0,22.919-8.042,22.919-20.736C388.979,94.577,380.684,87.009,366.783,87.008L366.783,87.008z M339.945,198.978
		c-3.175,3.897-6.339,8.038-6.339,12.925c0,9.749,12.432,12.683,29.51,12.683c14.148,0,33.418-0.991,33.418-14.144
		c0-7.818-9.271-8.302-20.986-9.037l-35.604-2.427H339.945z M412.142,87.746c4.383,5.612,9.024,13.418,9.024,24.638
		c0,27.073-21.221,42.927-51.947,42.927c-7.814,0-14.887-0.973-19.273-2.191l-8.052,12.925l23.901,1.46
		c42.201,2.689,67.072,3.911,67.072,36.34c0,28.057-24.629,43.902-67.072,43.902c-44.147,0-60.976-11.221-60.976-30.488
		c0-10.981,4.879-16.821,13.416-24.883c-8.052-3.403-10.731-9.498-10.731-16.087c0-5.37,2.679-10.247,7.077-14.884
		c4.389-4.63,9.265-9.271,15.12-14.635c-11.95-5.853-20.977-18.537-20.977-36.589c0-28.046,18.539-47.308,55.85-47.308
		c10.49,0,16.835,0.965,22.446,2.438h47.566V86.04l-22.443,1.708"/>
	<path fill="#FFFFFF" d="M477.519,43.422c-13.907,0-21.953-8.056-21.953-21.964C455.567,7.567,463.613,0,477.519,0
		c14.148,0,22.197,7.567,22.197,21.458C499.716,35.366,491.667,43.422,477.519,43.422z M446.049,190.001v-19.259l12.444-1.702
		c3.417-0.495,3.901-1.221,3.901-4.888V92.442c0-2.677-0.729-4.392-3.175-5.118l-13.17-4.638l2.682-19.75h50.494v101.217
		c0,3.91,0.235,4.393,3.904,4.888l12.441,1.702v19.259h-69.523"/>
	<path fill="#FFFFFF" d="M612.022,180.548c-10.493,5.116-25.856,9.751-39.766,9.751c-29.024,0-39.997-11.697-39.997-39.27V87.13
		c0-1.46,0-2.44-1.959-2.44H513.23V62.982c21.471-2.446,30.001-13.18,32.685-39.766h23.174v34.647c0,1.701,0,2.438,1.953,2.438
		h34.389v24.387H569.09v58.292c0,14.393,3.419,19.998,16.583,19.998c6.838,0,13.904-1.702,19.758-3.899l6.592,21.47"/>
	<path fill="#FFFFFF" d="M250.62,116.539L139.088,5.02c-6.417-6.423-16.834-6.423-23.259,0L92.67,28.181l29.376,29.376
		c6.829-2.306,14.657-0.76,20.098,4.682c5.469,5.476,7.004,13.37,4.641,20.222l28.313,28.313c6.85-2.36,14.753-0.835,20.223,4.644
		c7.647,7.645,7.647,20.032,0,27.679c-7.648,7.649-20.035,7.649-27.688,0c-5.75-5.754-7.172-14.202-4.26-21.287l-26.405-26.405
		l-0.002,69.485c1.864,0.923,3.624,2.155,5.177,3.701c7.645,7.644,7.645,20.029,0,27.685c-7.647,7.644-20.04,7.644-27.679,0
		c-7.646-7.656-7.646-20.041,0-27.685c1.89-1.886,4.076-3.314,6.409-4.271V94.19c-2.334-0.953-4.518-2.37-6.41-4.271
		c-5.791-5.787-7.186-14.287-4.216-21.398L81.287,39.557L4.819,116.024c-6.425,6.428-6.425,16.845,0,23.268l111.526,111.519
		c6.421,6.423,16.834,6.423,23.264,0l111.01-110.992c6.423-6.426,6.423-16.846,0-23.271"/>
</g>
</svg>
