<?xml version="1.0" encoding="utf-8"?>
<!-- Generator: Adobe Illustrator 17.0.0, SVG Export Plug-In . SVG Version: 6.00 Build 0)  -->
<!DOCTYPE svg PUBLIC "-//W3C//DTD SVG 1.1//EN" "http://www.w3.org/Graphics/SVG/1.1/DTD/svg11.dtd">
<svg version="1.1" id="Layer_1" xmlns="http://www.w3.org/2000/svg" xmlns:xlink="http://www.w3.org/1999/xlink" x="0px" y="0px"
	 width="612px" height="792px" viewBox="0 0 612 792" enable-background="new 0 0 612 792" xml:space="preserve">
<g>
	<title>HTML5 Logo</title>
	<polygon fill="#E44D26" points="129.452,653.429 89.993,210.857 523.574,210.857 484.074,653.36 306.518,702.584 	"/>
	<polygon fill="#F16529" points="306.784,664.959 450.257,625.183 484.013,247.044 306.784,247.044 	"/>
	<polygon fill="#EBEBEB" points="306.784,411.187 234.957,411.187 229.997,355.604 306.784,355.604 306.784,301.324 
		306.596,301.324 170.676,301.324 171.975,315.886 185.316,465.467 306.784,465.467 	"/>
	<polygon fill="#EBEBEB" points="306.784,552.158 306.546,552.221 246.094,535.898 242.23,492.607 212.855,492.607 187.741,492.607 
		195.346,577.834 306.534,608.701 306.784,608.632 	"/>
	<path fill="#FFFFFF" d="M130.334,90.584h27.584v27.253h25.233V90.584h27.585v82.529h-27.584v-27.636h-25.233v27.636h-27.584V90.584
		H130.334z"/>
	<path fill="#FFFFFF" d="M247.011,117.952h-24.284V90.584h76.165v27.368h-24.295v55.161h-27.585v-55.161H247.011z"/>
	<path fill="#FFFFFF" d="M310.98,90.584h28.763l17.693,28.998l17.675-28.998h28.774v82.529h-27.471v-40.906l-18.978,29.344h-0.475
		l-18.991-29.344v40.906h-26.99V90.584z"/>
	<path fill="#FFFFFF" d="M417.613,90.584h27.593v55.25h38.791v27.279h-66.384V90.584z"/>
	<polygon fill="#FFFFFF" points="306.596,411.187 306.596,465.467 373.435,465.467 367.135,535.863 306.596,552.203 
		306.596,608.675 417.872,577.834 418.689,568.664 431.444,425.763 432.768,411.187 418.141,411.187 	"/>
	<polygon fill="#FFFFFF" points="306.596,301.324 306.596,335.036 306.596,355.471 306.596,355.604 437.533,355.604 
		437.533,355.604 437.707,355.604 438.796,343.404 441.269,315.886 442.567,301.324 	"/>
</g>
</svg>
