<?xml version="1.0" encoding="utf-8"?>
<!-- Generator: Adobe Illustrator 17.0.0, SVG Export Plug-In . SVG Version: 6.00 Build 0)  -->
<!DOCTYPE svg PUBLIC "-//W3C//DTD SVG 1.1//EN" "http://www.w3.org/Graphics/SVG/1.1/DTD/svg11.dtd">
<svg version="1.1" id="Layer_1" xmlns="http://www.w3.org/2000/svg" xmlns:xlink="http://www.w3.org/1999/xlink" x="0px" y="0px"
	 width="209.646px" height="100.097px" viewBox="0 0 209.646 100.097" enable-background="new 0 0 209.646 100.097"
	 xml:space="preserve">
<path id="path3124_2_" inkscape:connector-curvature="0" fill="#FFFFFF" d="M41.97,33.501c6.545,0,10.906,1.208,13.086,3.624
	c2.179,2.416,2.698,6.563,1.558,12.44c-1.191,6.12-3.484,10.489-6.884,13.106c-3.4,2.617-8.573,3.925-15.518,3.925H23.736
	l6.432-33.095L41.97,33.501L41.97,33.501z M0,100.097h17.225l4.086-21.023h14.755c6.51,0,11.866-0.683,16.07-2.052
	c4.205-1.366,8.026-3.66,11.465-6.879c2.887-2.652,5.222-5.579,7.011-8.78c1.787-3.198,3.056-6.729,3.806-10.59
	c1.822-9.374,0.447-16.675-4.122-21.905c-4.569-5.231-11.838-7.846-21.803-7.846H15.369L0,100.097"/>
<path id="path3126_2_" inkscape:connector-curvature="0" fill="#FFFFFF" d="M87.069,0h17.09l-4.086,21.023h15.225
	c9.579,0,16.187,1.672,19.824,5.012c3.637,3.342,4.726,8.757,3.272,16.242l-7.151,36.797h-17.361l6.799-34.987
	c0.774-3.98,0.49-6.695-0.854-8.142c-1.343-1.448-4.202-2.172-8.575-2.172H97.594L88.79,79.074H71.7L87.069,0"/>
<path id="path3128_2_" inkscape:connector-curvature="0" fill="#FFFFFF" d="M176.418,33.501c6.544,0,10.905,1.208,13.086,3.624
	c2.179,2.416,2.698,6.563,1.558,12.44c-1.191,6.12-3.484,10.489-6.884,13.106c-3.399,2.617-8.572,3.925-15.516,3.925h-10.478
	l6.432-33.095L176.418,33.501L176.418,33.501z M134.449,100.097h17.225l4.086-21.023h14.754c6.51,0,11.866-0.683,16.07-2.052
	c4.205-1.366,8.026-3.66,11.465-6.879c2.886-2.652,5.222-5.579,7.011-8.78c1.787-3.198,3.056-6.729,3.806-10.59
	c1.823-9.374,0.448-16.675-4.122-21.905c-4.569-5.231-11.838-7.846-21.803-7.846h-33.124L134.449,100.097"/>
</svg>
