<?xml version="1.0" encoding="utf-8"?>
<!-- Generator: Adobe Illustrator 17.0.0, SVG Export Plug-In . SVG Version: 6.00 Build 0)  -->
<!DOCTYPE svg PUBLIC "-//W3C//DTD SVG 1.1//EN" "http://www.w3.org/Graphics/SVG/1.1/DTD/svg11.dtd">
<svg version="1.1" id="Layer_1" xmlns="http://www.w3.org/2000/svg" xmlns:xlink="http://www.w3.org/1999/xlink" x="0px" y="0px"
	 width="700.251px" height="129.577px" viewBox="-177.406 103.407 700.251 129.577"
	 enable-background="new -177.406 103.407 700.251 129.577" xml:space="preserve">
<g>
	<g>
		<g>
			<path fill="#FFFFFF" d="M-117.438,103.407c6.084,0,11.577,0.524,16.596,1.611c4.99,1.059,9.244,2.825,12.843,5.249
				c3.547,2.423,6.319,5.642,8.308,9.701c1.936,3.998,2.906,9.006,2.906,14.925c0,6.403-1.448,11.751-4.359,16.027
				c-2.925,4.271-7.232,7.772-12.973,10.489c7.82,2.252,13.623,6.212,17.466,11.847c3.862,5.671,5.755,12.459,5.755,20.417
				c0,6.451-1.233,12.002-3.704,16.672c-2.49,4.732-5.884,8.561-10.062,11.519c-4.216,2.983-9.048,5.174-14.468,6.598
				c-5.358,1.42-10.922,2.137-16.629,2.137h-61.646V103.407H-117.438z M-121.057,154.795c4.957,0,9.067-1.178,12.323-3.569
				c3.222-2.351,4.78-6.235,4.78-11.567c0-2.959-0.516-5.404-1.558-7.306c-1.08-1.895-2.514-3.382-4.316-4.421
				c-1.792-1.083-3.819-1.829-6.166-2.232c-2.309-0.452-4.723-0.628-7.203-0.628h-26.203v29.724H-121.057z M-119.508,208.939
				c2.758,0,5.382-0.249,7.848-0.798c2.504-0.547,4.723-1.415,6.601-2.698c1.869-1.235,3.427-2.925,4.55-5.074
				c1.133-2.132,1.678-4.902,1.678-8.245c0-6.555-1.85-11.211-5.516-14.038c-3.681-2.789-8.58-4.176-14.607-4.176h-30.448v35.029
				H-119.508z"/>
			<path fill="#FFFFFF" d="M-30.98,208.516c3.79,3.7,9.268,5.562,16.366,5.562c5.1,0,9.507-1.291,13.207-3.862
				c3.666-2.569,5.898-5.315,6.759-8.164H27.63c-3.58,11.087-9.01,19-16.423,23.766c-7.328,4.782-16.256,7.168-26.667,7.168
				c-7.256,0-13.785-1.174-19.645-3.487c-5.86-2.343-10.754-5.624-14.875-9.904c-4.015-4.299-7.132-9.378-9.354-15.348
				c-2.199-5.934-3.303-12.507-3.303-19.629c0-6.888,1.147-13.319,3.399-19.267c2.294-5.965,5.473-11.116,9.651-15.432
				c4.182-4.342,9.139-7.767,14.918-10.272c5.779-2.492,12.15-3.747,19.21-3.747c7.791,0,14.612,1.501,20.463,4.555
				c5.826,3.014,10.607,7.093,14.363,12.205c3.748,5.1,6.424,10.934,8.093,17.48c1.658,6.532,2.237,13.357,1.764,20.501h-66.459
				C-37.237,197.921-34.78,204.816-30.98,208.516z M-1.914,160.124c-3.007-3.324-8.092-5.126-14.306-5.126
				c-4.043,0-7.384,0.681-10.066,2.067c-2.624,1.367-4.765,3.069-6.41,5.074c-1.635,2.037-2.739,4.19-3.389,6.489
				c-0.645,2.242-1.037,4.276-1.152,6.071H3.917C3.315,168.248,1.107,163.478-1.914,160.124z"/>
			<path fill="#FFFFFF" d="M65.152,103.407v47.959h0.578c3.217-5.339,7.275-9.215,12.26-11.62c4.985-2.421,9.851-3.623,14.593-3.623
				c6.759,0,12.289,0.887,16.615,2.722c4.326,1.861,7.753,4.383,10.258,7.662c2.461,3.262,4.197,7.253,5.215,11.945
				c1.004,4.685,1.52,9.854,1.52,15.554v56.593h-25.414v-52c0-7.586-1.185-13.285-3.547-17.016c-2.362-3.728-6.548-5.604-12.6-5.604
				c-6.845,0-11.782,2.074-14.846,6.161c-3.121,4.094-4.632,10.831-4.632,20.197v48.262H39.738V103.407H65.152z"/>
			<path fill="#FFFFFF" d="M144.254,151.977c2.572-3.917,5.889-7.086,9.923-9.457c4.044-2.399,8.556-4.084,13.623-5.093
				c5.057-1.04,10.105-1.53,15.233-1.53c4.608,0,9.278,0.322,14.082,0.98c4.727,0.65,9.053,1.929,12.977,3.838
				c3.92,1.919,7.103,4.541,9.579,7.965c2.509,3.339,3.776,7.856,3.776,13.458v48.002c0,4.175,0.248,8.135,0.697,11.935
				c0.502,3.832,1.802,6.704,3.031,8.585l-25.84-0.062c-0.76-1.102-1.391-2.82-1.683-4.321c-0.296-1.474-0.507-2.985-0.621-4.538
				c-4.025,4.168-8.747,7.093-14.239,8.766c-5.454,1.647-11.018,2.479-16.725,2.479c-4.378,0-8.451-0.555-12.265-1.625
				c-3.757-1.073-7.093-2.732-9.942-4.978c-2.858-2.289-5.052-5.129-6.654-8.568c-1.596-3.458-2.418-7.574-2.418-12.327
				c0-5.246,0.937-9.562,2.801-12.944c1.807-3.384,4.159-6.102,7.103-8.114c2.897-2.029,6.223-3.554,9.981-4.55
				c3.728-1.009,7.514-1.835,11.266-2.419c3.81-0.585,7.523-1.059,11.228-1.424c3.719-0.366,6.931-0.884,9.798-1.606
				c2.839-0.707,5.105-1.773,6.778-3.131c1.635-1.365,2.428-3.343,2.314-5.984c0-2.722-0.483-4.899-1.358-6.518
				c-0.88-1.596-2.069-2.832-3.523-3.731c-1.496-0.896-3.174-1.486-5.11-1.799c-1.969-0.285-4.058-0.447-6.281-0.447
				c-4.952,0-8.871,1.102-11.648,3.217c-2.854,2.18-4.498,5.762-5.005,10.769h-25.381
				C140.124,160.827,141.591,155.897,144.254,151.977z M194.041,187.814c-1.577,0.526-3.317,0.963-5.114,1.344
				c-1.855,0.351-3.785,0.638-5.798,0.894c-1.994,0.236-4.039,0.514-6.023,0.87c-1.898,0.375-3.79,0.841-5.593,1.443
				c-1.84,0.593-3.446,1.391-4.765,2.4c-1.372,1.021-2.466,2.294-3.308,3.824c-0.803,1.534-1.243,3.53-1.243,5.889
				c0,2.249,0.44,4.149,1.243,5.708c0.841,1.546,1.936,2.753,3.374,3.647c1.425,0.899,3.098,1.52,4.967,1.866
				c1.898,0.38,3.853,0.519,5.855,0.519c4.971,0,8.804-0.827,11.538-2.481c2.715-1.666,4.77-3.656,6.047-5.975
				c1.305-2.318,2.089-4.655,2.351-7.012c0.33-2.375,0.483-4.285,0.483-5.719v-9.462
				C196.961,186.54,195.666,187.286,194.041,187.814z"/>
			<path fill="#FFFFFF" d="M261.389,138.524v12.841h0.569c3.198-5.339,7.328-9.215,12.456-11.62
				c5.091-2.421,10.358-3.623,15.693-3.623c6.797,0,12.361,0.887,16.663,2.722c4.383,1.861,7.791,4.383,10.258,7.662
				c2.528,3.262,4.268,7.253,5.277,11.945c1.033,4.685,1.539,9.854,1.539,15.554v56.593h-25.439v-52
				c0-7.586-1.185-13.285-3.556-17.016c-2.409-3.728-6.558-6.123-12.648-6.123c-6.883,0-11.902,2.593-14.971,6.68
				c-3.107,4.094-4.637,10.831-4.637,20.197v48.262h-25.161v-92.075H261.389z"/>
			<path fill="#FFFFFF" d="M380.13,154.998c-4.063,0-7.423,0.899-10.124,2.76c-2.758,1.862-5.009,4.218-6.73,7.141
				c-1.73,2.902-2.916,6.113-3.657,9.627c-0.693,3.516-1.075,6.993-1.075,10.451c0,3.341,0.382,6.727,1.075,10.186
				c0.741,3.444,1.869,6.546,3.475,9.371c1.625,2.775,3.795,5.06,6.529,6.854c2.715,1.797,6.027,2.689,9.957,2.689
				c6.084,0,10.75-1.699,14.019-5.067c3.26-3.389,5.277-7.935,6.118-13.634h24.44c-1.683,12.217-6.434,21.543-14.249,27.979
				c-7.849,6.388-17.905,9.629-30.142,9.629c-6.912,0-13.202-1.174-18.995-3.487c-5.788-2.343-10.697-5.566-14.751-9.727
				c-4.043-4.178-7.184-9.137-9.483-14.904c-2.247-5.776-3.374-12.117-3.374-19c0-7.129,1.046-13.771,3.126-19.908
				c2.075-6.118,5.134-11.414,9.22-15.862c4.044-4.469,8.982-7.946,14.832-10.451c5.822-2.492,12.485-3.747,19.956-3.747
				c5.468,0,10.716,0.741,15.787,2.125c5.034,1.41,9.564,3.585,13.527,6.513c3.977,2.897,7.237,6.517,9.742,10.829
				c2.466,4.314,3.876,9.483,4.263,15.391h-24.798C397.175,160.244,390.942,154.998,380.13,154.998z"/>
			<rect x="-42.414" y="111.939" fill="#FFFFFF" width="51.56" height="12.55"/>
			<path fill="#FFFFFF" d="M462.191,208.516c3.795,3.7,9.531,5.562,16.682,5.562c5.095,0,9.497-1.291,13.168-3.862
				c3.676-2.569,5.951-5.315,6.773-8.164h22.274c-3.561,11.087-9.034,19-16.395,23.766c-7.352,4.782-16.247,7.168-26.7,7.168
				c-7.27,0-13.833-1.174-19.64-3.487c-5.851-2.343-10.754-5.624-14.851-9.904c-4.058-4.299-7.17-9.378-9.378-15.348
				c-2.199-5.934-3.288-12.507-3.288-19.629c0-6.888,1.128-13.319,3.384-19.267c2.275-5.965,5.516-11.116,9.665-15.432
				c4.206-4.342,9.124-7.767,14.884-10.272c5.783-2.492,12.207-3.747,19.224-3.747c7.791,0,14.646,1.501,20.429,4.555
				c5.846,3.014,10.65,7.093,14.373,12.205c3.757,5.1,6.457,10.934,8.102,17.48c1.635,6.532,2.266,13.357,1.797,20.501h-66.746
				C455.948,197.921,458.381,204.816,462.191,208.516z M491.572,160.124c-3.049-3.324-8.178-5.126-14.316-5.126
				c-4.039,0-7.394,0.681-10.123,2.067c-2.62,1.367-5.014,3.069-6.616,5.074c-1.616,2.037-2.762,4.19-3.436,6.489
				c-0.607,2.242-1.023,4.276-1.133,6.071h41.47C496.739,168.248,494.588,163.478,491.572,160.124z"/>
		</g>
	</g>
</g>
</svg>
