<?xml version="1.0" encoding="utf-8"?>
<!-- Generator: Adobe Illustrator 17.0.0, SVG Export Plug-In . SVG Version: 6.00 Build 0)  -->
<!DOCTYPE svg PUBLIC "-//W3C//DTD SVG 1.1//EN" "http://www.w3.org/Graphics/SVG/1.1/DTD/svg11.dtd">
<svg version="1.1" id="Layer_1" xmlns="http://www.w3.org/2000/svg" xmlns:xlink="http://www.w3.org/1999/xlink" x="0px" y="0px"
	 width="345.384px" height="336.857px" viewBox="212.881 7.996 345.384 336.857"
	 enable-background="new 212.881 7.996 345.384 336.857" xml:space="preserve">
<g>
	<path fill-rule="evenodd" clip-rule="evenodd" fill="#FFFFFF" d="M385.573,7.996c-95.362,0-172.692,77.313-172.692,172.692
		c0,76.299,49.481,141.031,118.098,163.867c8.629,1.597,11.799-3.748,11.799-8.308c0-4.116-0.159-17.722-0.234-32.152
		c-48.043,10.447-58.181-20.376-58.181-20.376c-7.856-19.959-19.174-25.269-19.174-25.269c-15.67-10.718,1.181-10.498,1.181-10.498
		c17.34,1.218,26.472,17.798,26.472,17.798c15.402,26.399,40.399,18.767,50.255,14.354c1.55-11.16,6.024-18.781,10.964-23.093
		c-38.358-4.365-78.682-19.175-78.682-85.345c0-18.853,6.747-34.259,17.795-46.353c-1.793-4.351-7.705-21.914,1.673-45.703
		c0,0,14.502-4.639,47.501,17.704c13.776-3.827,28.55-5.746,43.225-5.813c14.676,0.067,29.46,1.986,43.262,5.813
		c32.962-22.343,47.442-17.704,47.442-17.704c9.4,23.788,3.488,41.352,1.695,45.703c11.073,12.094,17.773,27.5,17.773,46.353
		c0,66.33-40.399,80.933-78.855,85.208c6.194,5.359,11.713,15.868,11.713,31.979c0,23.107-0.198,41.703-0.198,47.392
		c0,4.597,3.108,9.981,11.86,8.286c68.581-22.861,118-87.571,118-163.845C558.265,85.309,480.946,7.996,385.573,7.996z"/>
	<path fill="#FFFFFF" d="M278.289,255.943c-0.38,0.86-1.732,1.117-2.96,0.528c-1.254-0.564-1.955-1.734-1.55-2.594
		c0.371-0.883,1.723-1.128,2.974-0.539C278.007,253.902,278.721,255.083,278.289,255.943L278.289,255.943z M276.163,254.368"/>
	<path fill="#FFFFFF" d="M285.284,263.746c-0.824,0.762-2.435,0.408-3.527-0.799c-1.131-1.204-1.34-2.815-0.506-3.589
		c0.849-0.762,2.41-0.405,3.541,0.799C285.924,261.375,286.145,262.973,285.284,263.746L285.284,263.746z M283.637,261.978"/>
	<path fill="#FFFFFF" d="M292.093,273.691c-1.059,0.737-2.79,0.047-3.859-1.488c-1.059-1.536-1.059-3.379,0.025-4.116
		c1.07-0.737,2.776-0.073,3.86,1.449C293.174,271.096,293.174,272.94,292.093,273.691L292.093,273.691z M292.093,273.691"/>
	<path fill="#FFFFFF" d="M301.421,283.301c-0.947,1.044-2.963,0.762-4.438-0.662c-1.511-1.391-1.93-3.368-0.983-4.412
		c0.961-1.045,2.988-0.751,4.474,0.662C301.973,280.279,302.429,282.267,301.421,283.301L301.421,283.301z M301.421,283.301"/>
	<path fill="#FFFFFF" d="M314.289,288.88c-0.419,1.352-2.36,1.966-4.315,1.391c-1.955-0.592-3.231-2.176-2.837-3.541
		c0.405-1.363,2.357-2.002,4.326-1.388C313.415,285.931,314.694,287.504,314.289,288.88L314.289,288.88z M314.289,288.88"/>
	<path fill="#FFFFFF" d="M328.423,289.914c0.047,1.424-1.611,2.605-3.664,2.631c-2.064,0.047-3.737-1.106-3.759-2.508
		c0-1.438,1.622-2.605,3.686-2.642C326.739,287.355,328.423,288.5,328.423,289.914L328.423,289.914z M328.423,289.914"/>
	<path fill="#FFFFFF" d="M341.574,287.677c0.246,1.388-1.181,2.815-3.22,3.195c-2.005,0.369-3.859-0.491-4.116-1.868
		c-0.249-1.424,1.204-2.851,3.206-3.22C339.485,285.428,341.314,286.264,341.574,287.677L341.574,287.677z M341.574,287.677"/>
</g>
</svg>
