<?xml version="1.0" encoding="utf-8"?>
<!-- Generator: Adobe Illustrator 17.0.0, SVG Export Plug-In . SVG Version: 6.00 Build 0)  -->
<!DOCTYPE svg PUBLIC "-//W3C//DTD SVG 1.1//EN" "http://www.w3.org/Graphics/SVG/1.1/DTD/svg11.dtd">
<svg version="1.1" id="Layer_1" xmlns="http://www.w3.org/2000/svg" xmlns:xlink="http://www.w3.org/1999/xlink" x="0px" y="0px"
	 width="528.183px" height="142.839px" viewBox="-90.092 96.581 528.183 142.839"
	 enable-background="new -90.092 96.581 528.183 142.839" xml:space="preserve">
<g>
	<path fill="#FFFFFF" d="M11.639,157.717h-44.385c-1.145,0-2.074,0.93-2.074,2.075v21.7c0,1.145,0.929,2.077,2.074,2.077h17.315
		v26.961c0,0-3.888,1.326-14.636,1.326c-12.681,0-30.396-4.633-30.396-43.587c0-38.962,18.446-44.088,35.764-44.088
		c14.99,0,21.449,2.639,25.558,3.911c1.291,0.395,2.485-0.89,2.485-2.036l4.951-20.967c0-0.536-0.182-1.182-0.793-1.62
		c-1.669-1.191-11.85-6.887-37.57-6.887c-29.631,0-60.024,12.606-60.024,73.206c0,60.602,34.798,69.632,64.122,69.632
		c24.28,0,39.009-10.375,39.009-10.375c0.607-0.335,0.672-1.184,0.672-1.572v-67.68C13.712,158.646,12.784,157.717,11.639,157.717z"
		/>
	<path fill="#FFFFFF" d="M240.377,103.842c0-1.155-0.915-2.086-2.06-2.086h-24.991c-1.142,0-2.07,0.932-2.07,2.086
		c0,0.005,0.007,48.296,0.007,48.296h-38.955v-48.296c0-1.155-0.919-2.086-2.062-2.086h-24.99c-1.137,0-2.064,0.932-2.064,2.086
		v130.772c0,1.153,0.927,2.092,2.064,2.092h24.99c1.143,0,2.062-0.939,2.062-2.092v-55.936h38.955c0,0-0.068,55.932-0.068,55.936
		c0,1.153,0.927,2.092,2.07,2.092h25.05c1.145,0,2.06-0.939,2.062-2.092V103.842z"/>
	<g>
		<g>
			<path fill="#FFFFFF" d="M58.798,121.002c0-8.998-7.214-16.27-16.116-16.27c-8.892,0-16.112,7.272-16.112,16.27
				c0,8.99,7.22,16.281,16.112,16.281C51.583,137.283,58.798,129.991,58.798,121.002z"/>
			<path fill="#FFFFFF" d="M57.011,207.028c0-3.351,0-60.365,0-60.365c0-1.146-0.925-2.083-2.068-2.083H30.031
				c-1.143,0-2.165,1.179-2.165,2.325c0,0,0,72.638,0,86.485c0,2.541,1.584,3.297,3.633,3.297c0,0,10.633,0,22.445,0
				c2.463,0,3.066-1.209,3.066-3.338C57.011,228.713,57.011,210.553,57.011,207.028z"/>
		</g>
	</g>
	<path fill="#FFFFFF" d="M335.355,144.777h-24.8c-1.137,0-2.063,0.938-2.063,2.091v64.122c0,0-6.301,4.61-15.243,4.61
		c-8.941,0-11.315-4.058-11.315-12.813c0-8.766,0-55.918,0-55.918c0-1.153-0.924-2.091-2.062-2.091h-25.169
		c-1.136,0-2.066,0.938-2.066,2.091c0,0,0,34.147,0,60.152c0,26.007,14.494,32.37,34.434,32.37c16.358,0,29.547-9.037,29.547-9.037
		s0.628,4.762,0.912,5.327c0.284,0.563,1.025,1.132,1.825,1.132l16.012-0.071c1.136,0,2.066-0.939,2.066-2.088l-0.007-87.785
		C337.424,145.714,336.497,144.777,335.355,144.777z"/>
	<path fill="#FFFFFF" d="M403.136,141.839c-14.085,0-23.665,6.284-23.665,6.284v-44.282c0-1.155-0.923-2.086-2.062-2.086h-25.062
		c-1.14,0-2.065,0.932-2.065,2.086v130.772c0,1.153,0.926,2.092,2.069,2.092c0.002,0,17.382,0,17.388,0
		c0.783,0,1.376-0.404,1.814-1.111c0.432-0.702,1.056-6.03,1.056-6.03s10.247,9.712,29.648,9.712
		c22.775,0,35.837-11.553,35.837-51.861C438.092,147.107,417.231,141.839,403.136,141.839z M393.354,215.52
		c-8.602-0.262-14.436-4.165-14.436-4.165v-41.413c0,0,5.756-3.528,12.818-4.159c8.931-0.8,17.536,1.898,17.536,23.202
		C409.272,211.449,405.388,215.883,393.354,215.52z"/>
	<path fill="#FFFFFF" d="M128.836,144.568H110.09c0,0-0.028-24.761-0.028-24.766c0-0.938-0.483-1.406-1.567-1.406H82.949
		c-0.993,0-1.526,0.437-1.526,1.391v25.592c0,0-12.803,3.091-13.668,3.34c-0.861,0.25-1.496,1.045-1.496,1.993v16.082
		c0,1.157,0.924,2.09,2.067,2.09h13.098c0,0,0,16.821,0,38.69c0,28.737,20.158,31.56,33.759,31.56c6.215,0,13.65-1.996,14.878-2.449
		c0.742-0.273,1.174-1.042,1.174-1.875l0.02-17.692c0-1.153-0.974-2.088-2.072-2.088c-1.092,0-3.887,0.445-6.764,0.445
		c-9.208,0-12.328-4.281-12.328-9.823c0-5.538-0.001-36.768-0.001-36.768h18.747c1.143,0,2.069-0.933,2.069-2.09v-20.144
		C130.905,145.498,129.979,144.568,128.836,144.568z"/>
</g>
</svg>
