<?xml version="1.0" encoding="utf-8"?>
<!-- Generator: Adobe Illustrator 17.0.0, SVG Export Plug-In . SVG Version: 6.00 Build 0)  -->
<!DOCTYPE svg PUBLIC "-//W3C//DTD SVG 1.1//EN" "http://www.w3.org/Graphics/SVG/1.1/DTD/svg11.dtd">
<svg version="1.1" id="Layer_1" xmlns="http://www.w3.org/2000/svg" xmlns:xlink="http://www.w3.org/1999/xlink" x="0px" y="0px"
	 width="589.105px" height="142.97px" viewBox="91.497 105.511 589.105 142.97"
	 enable-background="new 91.497 105.511 589.105 142.97" xml:space="preserve">
<g>
	<g>
		<path fill="#FFFFFF" d="M672.667,220.883c1.679-0.206,2.56-1.133,2.56-2.684c0-1.893-1.152-2.812-3.506-2.812h-3.789v9.956h1.423
			v-4.336h1.76l0.039,0.054l2.734,4.282h1.52l-2.932-4.433L672.667,220.883z M671.015,219.882h-1.66v-3.363h2.106
			c1.09,0,2.327,0.179,2.327,1.602C673.787,219.75,672.538,219.882,671.015,219.882z"/>
		<path fill="#FFFFFF" d="M671.181,210.962c-5.29,0-9.432,4.135-9.432,9.417c0,5.286,4.142,9.417,9.432,9.417
			c5.275,0,9.421-4.13,9.421-9.417C680.602,215.097,676.456,210.962,671.181,210.962z M671.181,228.562
			c-4.51,0-8.047-3.56-8.047-8.183c0-4.619,3.537-8.183,8.047-8.183c4.507,0,8.036,3.564,8.036,8.183
			C679.217,225.002,675.688,228.562,671.181,228.562z"/>
	</g>
	<g>
		<g>
			<polygon fill="#FFFFFF" points="91.497,126.655 113.547,126.655 113.547,206.983 154.38,206.983 154.38,227.337 91.497,227.337 
							"/>
			<g>
				<path fill="#FFFFFF" d="M164.122,159.078h21.197v68.227h-21.197V159.078z M174.722,125.162c6.787,0,12.296,5.509,12.296,12.298
					c0,6.787-5.509,12.281-12.296,12.281c-6.782,0-12.291-5.494-12.291-12.281C162.431,130.671,167.94,125.162,174.722,125.162"/>
			</g>
			<polygon fill="#FFFFFF" points="273.931,126.655 295.112,126.655 295.112,186.824 319.125,159.047 345.1,159.047 
				317.304,190.636 344.518,227.337 317.886,227.337 295.387,193.607 295.112,193.607 295.112,227.337 273.931,227.337 			"/>
			<path fill="#FFFFFF" d="M197.043,159.094h20.347v9.32h0.283c2.823-5.364,9.748-11.018,20.064-11.018
				c21.48,0,25.436,14.132,25.436,32.5v37.411h-21.197v-33.172c0-7.912-0.145-18.083-11.026-18.083
				c-11.02,0-12.711,8.616-12.711,17.517v33.737h-21.197V159.094z"/>
			<path fill="#FFFFFF" d="M389.716,185.264c0.136-7.07-5.373-13.002-13.012-13.002c-9.319,0-14.402,6.361-14.968,13.002H389.716z
				 M407.665,215.492c-6.795,8.625-17.949,13.574-28.971,13.574c-21.197,0-38.155-14.133-38.155-36.041
				c0-21.895,16.958-36.029,38.155-36.029c19.791,0,32.213,14.134,32.213,36.029v6.64h-49.171
				c1.683,8.059,7.776,13.287,15.963,13.287c6.932,0,11.585-3.529,15.12-8.334L407.665,215.492z"/>
			<path fill="#FFFFFF" d="M455.066,175.577c-10.592,0-16.96,7.07-16.96,17.379c0,10.324,6.368,17.386,16.96,17.386
				c10.607,0,16.96-7.062,16.96-17.386C472.026,182.647,465.673,175.577,455.066,175.577 M491.538,227.298h-19.512v-9.052h-0.276
				c-3.265,4.953-11.452,10.743-21.059,10.743c-20.357,0-33.78-14.691-33.78-35.459c0-19.085,11.875-36.602,31.375-36.602
				c8.769,0,16.956,2.395,21.765,9.037h0.275v-39.309h21.211V227.298z"/>
		</g>
		<path fill="#007BB5" d="M645.123,105.511H523.278c-5.818,0-10.545,4.615-10.545,10.309v122.345
			c0,5.693,4.728,10.316,10.545,10.316h121.845c5.833,0,10.576-4.623,10.576-10.316V115.819
			C655.699,110.126,650.956,105.511,645.123,105.511z"/>
		<path fill="#FFFFFF" d="M533.92,159.109h21.222v68.227H533.92V159.109z M544.535,125.193c6.783,0,12.29,5.509,12.29,12.296
			c0,6.789-5.507,12.298-12.29,12.298c-6.81,0-12.302-5.509-12.302-12.298C532.232,130.702,537.725,125.193,544.535,125.193"/>
		<path fill="#FFFFFF" d="M568.445,159.109h20.326v9.327h0.291c2.827-5.364,9.75-11.02,20.066-11.02
			c21.467,0,25.434,14.127,25.434,32.502v37.418h-21.199v-33.179c0-7.912-0.14-18.091-11.022-18.091
			c-11.034,0-12.717,8.623-12.717,17.524v33.745h-21.179V159.109z"/>
	</g>
</g>
</svg>
