<?xml version="1.0" encoding="utf-8"?>
<!-- Generator: Adobe Illustrator 17.0.0, SVG Export Plug-In . SVG Version: 6.00 Build 0)  -->
<!DOCTYPE svg PUBLIC "-//W3C//DTD SVG 1.1//EN" "http://www.w3.org/Graphics/SVG/1.1/DTD/svg11.dtd">
<svg version="1.1" id="Layer_1" xmlns="http://www.w3.org/2000/svg" xmlns:xlink="http://www.w3.org/1999/xlink" x="0px" y="0px"
	 width="631.271px" height="339.133px" viewBox="69.964 7.097 631.271 339.133"
	 enable-background="new 69.964 7.097 631.271 339.133" xml:space="preserve">
<g>
	<path fill="#FDDE6B" d="M124.728,217.109c17.513,0,29.343-13.415,38.352-29.422c2.073,0.502,4.396,0.752,6.683,0.752
		c15.727,0,29.094-8.503,37.853-23.75c6.184-10.878,8.47-22.749,8.47-27.664c0-11.34-10.795-23.502-22.878-23.502
		c-3.357,0-5.682,0.535-7.217,1.038c0.785-4.915,1.036-9.041,1.036-11.875c0-21.96-15.976-41.876-34.993-41.876
		c-12.366,0-18.552,8.291-22.16,18.375c-7.721-6.997-21.089-11.914-30.883-11.914c-7.435,0-11.832,2.871-14.905,9.58
		c-6.684,14.209-11.33,56.048-11.33,81.128C72.756,184.816,97.705,217.109,124.728,217.109L124.728,217.109z"/>
	<path fill="#FFFFFF" d="M124.728,217.498c-12.643,0-25.916-7.158-36.418-19.64c-9.984-11.866-15.944-26.774-15.944-39.879
		c0-26.419,4.965-67.685,11.367-81.293c3.148-6.871,7.711-9.804,15.257-9.804c10.006,0,23.086,4.973,30.713,11.631
		c4.503-12.172,11.812-18.092,22.33-18.092c18.849,0,35.383,19.75,35.383,42.265c0,1.951-0.125,5.963-0.944,11.32
		c1.999-0.578,4.261-0.872,6.737-0.872c11.742,0,23.267,11.834,23.267,23.891c0,4.974-2.313,16.936-8.521,27.856
		c-8.872,15.443-22.435,23.947-38.191,23.947c-2.26,0-4.496-0.24-6.488-0.696C151.943,208.165,139.689,217.498,124.728,217.498z
		 M98.991,67.66c-7.292,0-11.508,2.71-14.551,9.353c-6.362,13.523-11.295,54.626-11.295,80.966
		c0,25.893,24.287,58.741,51.583,58.741c14.713,0,26.792-9.286,38.013-29.223l0.144-0.257l0.286,0.069
		c2.004,0.486,4.284,0.742,6.592,0.742c15.467,0,28.79-8.366,37.516-23.555c6.133-10.789,8.419-22.575,8.419-27.47
		c0-11.664-11.139-23.113-22.489-23.113c-2.645,0-5.033,0.343-7.096,1.019l-0.606,0.198l0.101-0.63
		c0.897-5.613,1.031-9.811,1.031-11.814c0-22.1-16.17-41.487-34.604-41.487c-10.446,0-17.371,5.757-21.793,18.116l-0.196,0.549
		l-0.432-0.391C122.181,72.738,109.017,67.66,98.991,67.66z"/>
</g>
<path d="M122.745,205.376c13.579,0,24.762-15.736,33.129-35.289c4.163,3.393,9.115,5.201,14.142,5.201
	c26.488,0,33.766-33.337,33.766-39.06c0-8.664-7.278-10.85-11.855-9.492c-0.565,1.358-5.403,26.861-20.557,26.861
	c-3.266,0-5.892-1.396-8.143-3.77c6.564-21.016,10.054-41.774,10.054-49.643c0-15.478-11.368-29.038-21.609-29.038
	c-14.259,0-17.261,44.14-11.521,67.605c-6.6,24.856-14.742,44.676-20.896,44.676c-2.175,0-3.527-2.715-3.527-11.113
	c0-18.984,4.876-68.628,5.403-80.267c0.261-5.987-13.769-14.124-22.699-14.124c-2.964,0-4.315,1.093-5.401,3.015
	c-2.966,5.688-9.982,41.468-9.982,77.284C83.049,180.446,102.784,205.376,122.745,205.376L122.745,205.376z"/>
<g>
	<path fill="#FDDE6B" d="M349.988,221.525c9.547,0,16.726-4.918,18.266-15.496c1.284-8.293,5.429-109.8,5.429-141.842
		c0-31.254-2.856-36.673-4.146-39.259c-5.645-10.08-25.444-17.831-36.278-17.831c-10.042,0-14.157,5.418-15.691,15.502
		c-1.537,9.543-3.608,45.461-5.401,77.504c-5.394,0.252-11.826,0.751-18.549,1.542c0-24.292,0-46.753-0.998-55.294
		c-1.038-9.292-2.575-14.209-6.184-18.837c-6.436-8.539-21.624-17.833-31.921-17.833c-10.043,0-15.19,5.921-16.476,15.248
		c-1.789,11.091-4.359,65.595-5.148,89.634c-7.471,3.625-13.118,9.546-13.118,18.337c0,9.834,6.935,21.204,11.331,27.375
		c0,7.001-0.251,14.756-0.251,19.384c0,10.328,2.038,18.369,7.72,24.538c6.435,7.253,19.802,12.411,32.672,12.411
		c11.829,0,17.229-5.416,19.302-15.243c1.035-5.169,1.535-18.591,1.535-29.46c5.149-0.502,10.831-1.542,16.728-2.585
		c-0.252,8.292-0.499,16.039-0.499,20.417c0,6.996,2.322,11.88,5.397,15.504C320.644,213.524,337.656,221.525,349.988,221.525
		L349.988,221.525z M418.971,287.908c30.344,0,43.746-38.502,48.359-74.133c18.016-14.745,38.894-54.005,38.894-74.169
		c0-9.289-11.583-22.963-23.945-22.963c-3.618,0-6.685,1.005-10.301,2.837l-0.781-7.752c-0.753-8.003-2.048-14.21-5.15-18.337
		c-6.434-8.538-23.417-13.704-34.749-13.704c-6.147,0-11.296,2.582-13.61,8.251c-7.473-10.836-23.704-18.085-35.286-18.085
		c-8.218,0-11.042,3.373-13.862,13.707c-3.363,12.417-8.512,43.921-8.512,68.46c0,21.714,6.189,34.878,24.448,50.384
		c-12.076,8.535-21.373,19.372-21.373,36.961c0,18.584,10.831,33.046,31.168,38.455
		C402.741,285.574,412.002,287.908,418.971,287.908L418.971,287.908z M511.615,217.109c17.486,0,29.347-13.415,38.356-29.422
		c2.037,0.502,4.359,0.752,6.685,0.752c15.69,0,29.058-8.503,37.815-23.75c6.182-10.878,8.504-22.749,8.504-27.664
		c0-11.34-10.831-23.502-22.903-23.502c-3.365,0-5.652,0.535-7.225,1.038c0.793-4.915,1.032-9.041,1.032-11.875
		c0-21.96-15.933-41.876-34.988-41.876c-12.364,0-18.517,8.291-22.126,18.375c-7.715-6.997-21.119-11.914-30.882-11.914
		c-7.471,0-11.833,2.871-14.936,9.58c-6.683,14.209-11.332,56.048-11.332,81.128C459.615,184.816,484.593,217.109,511.615,217.109
		L511.615,217.109z M609.409,220.234c40.141,0,72.564-51.669,72.564-81.131c0-13.419-10.289-25.329-24.448-25.329
		c-1.04,0-2.036,0-3.327,0.284c0.252-2.079,0.502-6.457,0.502-9.578c0-22.464-11.583-41.588-30.378-41.588
		c-6.935,0-13.619,2.583-20.594,7.249c-2.572-0.791-5.15-1.041-7.715-1.041c-29.308,0-41.181,40.546-41.181,73.379
		C554.832,188.981,577.746,220.234,609.409,220.234L609.409,220.234z"/>
</g>
<path d="M344.838,203.442c2.824,0,5.15-1.29,5.686-3.624c0.997-6.461,5.143-106.713,5.143-139.511
	c0-14.208-0.78-29.208-2.573-32.544c-2.57-4.916-15.187-10.334-21.369-10.334c-3.074,0-3.863,1.544-4.115,3.625
	c-1.251,9.543-3.749,49.768-5.789,88.485c-12.65,0.608-30.167,1.901-46.538,4.09c0.214-13.383,0.319-26.231,0.319-36.527
	c0-32.547-1.284-40.546-4.358-44.961c-2.825-3.876-12.369-12.129-18.516-12.129c-3.111,0-4.397,1.544-4.647,3.626
	c-1.432,7.857-3.791,55.903-5.326,96.628c-7.754,2.546-12.689,5.634-12.689,9.293c0,3.77,5.362,14.964,11.581,22.142
	c-0.322,10.83-0.499,19.447-0.499,24.08c0,11.116,3.859,22.745,25.983,22.745c2.824,0,5.148-1.293,5.651-3.628
	c0.464-2.871,1.071-18.906,1.608-39.217c14.298-1.796,32.243-4.518,45.501-7.68c-0.79,17.479-1.287,31.58-1.287,37.856
	C318.604,196.983,335.585,203.442,344.838,203.442L344.838,203.442z M415.116,269.825c20.514,0,30.414-33.445,35.164-67.857
	c25.704-16.929,37.929-60.601,37.929-65.697c0-5.703-7.726-10.872-11.583-9.041c-0.678,2.189-7.075,31.175-23.809,50.662
	c1.397-17.545,1.647-33.227,1.647-42.159c0-22.711-1.784-34.88-3.569-37.712c-2.864-3.877-15.442-8.003-21.381-8.003
	c-3.068,0-4.899,2.334-4.899,5.419v7.105c-3.71,23.213-14.261,69.65-20.58,69.65c-2.326,0-3.868-4.166-3.868-12.423
	c0-28.163,5.15-53.748,5.15-60.456c0-7.502-13.904-19.125-22.377-19.125c-3.103,0-4.107,1.29-4.644,3.12
	c-2.04,5.921-7.971,42.09-7.971,64.84c0,4.122,0,7.997,0.502,11.37c1.036,10.34,17.765,33.589,32.956,33.589
	c11.509,0,18.153-18.294,21.91-38.429c-0.616,13.207-1.647,26.947-3.255,39.796c-24.911,7.465-49.042,20.95-49.042,40.723
	c0,11.623,8.116,24.468,23.954,26.986C401.748,267.308,409.613,269.825,415.116,269.825L415.116,269.825z M404.07,250.268
	c-2.612-1.969-3.903-5.596-3.903-9.111c0-8.402,6.97-22.393,19.625-29.317C415.971,232.539,410.679,245.351,404.07,250.268
	L404.07,250.268z M507.758,199.031c12.94,0,23.555-14.996,31.521-33.623c3.97,3.232,8.692,4.954,13.517,4.954
	c25.201,0,32.163-31.755,32.163-37.212c0-8.253-6.962-10.336-11.32-9.041c-0.502,1.291-5.151,25.586-19.562,25.586
	c-3.142,0-5.641-1.329-7.751-3.593c6.217-20.02,9.549-39.792,9.549-47.291c0-14.745-10.803-27.664-20.594-27.664
	c-13.579,0-16.443,42.055-10.979,64.408c-6.283,23.68-14.046,42.558-19.901,42.558c-2.045,0-3.327-2.581-3.327-10.586
	c0-18.083,4.609-65.38,5.15-76.467c0.252-5.705-13.155-13.455-21.632-13.455c-2.816,0-4.109,1.041-5.142,2.871
	c-2.824,5.417-9.546,39.506-9.546,73.628C469.904,175.28,488.711,199.031,507.758,199.031L507.758,199.031z M605.552,202.153
	c36.031,0,58.656-52.207,58.946-68.466c0-5.954-8.014-9.83-10.834-9.579c-11.829,44.206-33.704,54.545-42.71,54.545
	c-9.724,0-14.764-12.885-16.231-26.056c4.071,1.004,9.834,1.215,11.331,1.215c17.264,0,30.63-29.704,30.63-53.206
	c0-15.251-5.643-27.379-16.222-27.379c-5.939,0-12.223,3.803-17.764,9.114c-3.252-1.723-7.261-2.905-10.552-2.905
	c-16.721,0-27.021,29.457-27.021,59.17C565.125,173.197,579.029,202.153,605.552,202.153L605.552,202.153z M601.156,134.981
	c-2.001,0-4.186-0.075-6.433-0.181c2.146-19.734,10.328-38.321,13.905-38.321c2.326,0,3.358,7.497,3.358,17.044
	c0,8.788-0.78,17.833-2.327,20.665C607.587,134.726,604.772,134.981,601.156,134.981L601.156,134.981z"/>
<path fill="#FFFFFF" d="M367.847,51.122"/>
<g>
	<radialGradient id="SVGID_1_" cx="682.0842" cy="36.5832" r="19.1521" gradientUnits="userSpaceOnUse">
		<stop  offset="0" style="stop-color:#FFFFFF"/>
		<stop  offset="1" style="stop-color:#BF0D00"/>
	</radialGradient>
	<path fill="url(#SVGID_1_)" d="M701.235,36.582c0,10.575-8.562,19.154-19.157,19.154c-10.579,0-19.146-8.579-19.146-19.154
		c0-10.575,8.567-19.152,19.146-19.152C692.673,17.43,701.235,26.008,701.235,36.582z"/>
</g>
<g>
	<path fill="#FDDE6B" d="M122.325,217.109c17.513,0,29.343-13.415,38.352-29.422c2.073,0.502,4.396,0.752,6.683,0.752
		c15.727,0,29.094-8.503,37.853-23.75c6.184-10.878,8.47-22.749,8.47-27.664c0-11.34-10.795-23.502-22.878-23.502
		c-3.357,0-5.682,0.535-7.217,1.038c0.785-4.915,1.036-9.041,1.036-11.875c0-21.96-15.976-41.876-34.993-41.876
		c-12.366,0-18.552,8.291-22.16,18.375c-7.721-6.997-21.089-11.914-30.883-11.914c-7.435,0-11.832,2.871-14.905,9.58
		c-6.684,14.209-11.33,56.048-11.33,81.128C70.353,184.816,95.302,217.109,122.325,217.109L122.325,217.109z"/>
	<path fill="#FFFFFF" d="M122.325,217.498c-12.643,0-25.916-7.158-36.418-19.64c-9.984-11.866-15.944-26.774-15.944-39.879
		c0-26.419,4.965-67.685,11.367-81.293c3.148-6.871,7.711-9.804,15.257-9.804c10.006,0,23.086,4.973,30.713,11.631
		c4.503-12.172,11.812-18.092,22.33-18.092c18.849,0,35.383,19.75,35.383,42.265c0,1.951-0.125,5.963-0.944,11.32
		c1.999-0.578,4.261-0.872,6.737-0.872c11.742,0,23.267,11.834,23.267,23.891c0,4.974-2.313,16.936-8.521,27.856
		c-8.872,15.443-22.435,23.947-38.191,23.947c-2.26,0-4.496-0.24-6.488-0.696C149.54,208.165,137.286,217.498,122.325,217.498z
		 M96.588,67.66c-7.292,0-11.508,2.71-14.551,9.353c-6.362,13.523-11.295,54.626-11.295,80.966
		c0,25.893,24.287,58.741,51.583,58.741c14.713,0,26.792-9.286,38.013-29.223l0.144-0.257l0.286,0.069
		c2.004,0.486,4.284,0.742,6.592,0.742c15.467,0,28.79-8.366,37.516-23.555c6.133-10.789,8.419-22.575,8.419-27.47
		c0-11.664-11.139-23.113-22.489-23.113c-2.645,0-5.033,0.343-7.096,1.019l-0.606,0.198l0.101-0.63
		c0.897-5.613,1.031-9.811,1.031-11.814c0-22.1-16.17-41.487-34.604-41.487c-10.446,0-17.371,5.757-21.793,18.116l-0.196,0.549
		l-0.432-0.391C119.779,72.738,106.614,67.66,96.588,67.66z"/>
</g>
<path d="M120.343,205.376c13.579,0,24.762-15.736,33.129-35.289c4.163,3.393,9.115,5.201,14.142,5.201
	c26.488,0,33.766-33.337,33.766-39.06c0-8.664-7.278-10.85-11.855-9.492c-0.565,1.358-5.403,26.861-20.557,26.861
	c-3.266,0-5.892-1.396-8.143-3.77c6.564-21.016,10.054-41.774,10.054-49.643c0-15.478-11.368-29.038-21.609-29.038
	c-14.259,0-17.261,44.14-11.521,67.605c-6.6,24.856-14.742,44.676-20.896,44.676c-2.175,0-3.527-2.715-3.527-11.113
	c0-18.984,4.876-68.628,5.403-80.267c0.261-5.987-13.769-14.124-22.699-14.124c-2.964,0-4.315,1.093-5.401,3.015
	c-2.966,5.688-9.982,41.468-9.982,77.284C80.646,180.446,100.381,205.376,120.343,205.376L120.343,205.376z"/>
<path fill="#FDDE6B" d="M655.122,113.775c-1.04,0-2.036,0-3.327,0.284c0.252-2.079,0.502-6.457,0.502-9.578
	c0-22.464-11.583-41.588-30.378-41.588c-6.935,0-13.619,2.583-20.594,7.249c-2.572-0.791-5.15-1.041-7.715-1.041
	c-11.105,0-19.705,5.825-26.107,14.842c-5.888-13.378-17.683-23.133-31.015-23.133c-12.364,0-18.517,8.291-22.126,18.375
	c-7.715-6.997-21.119-11.914-30.882-11.914c-7.471,0-11.833,2.871-14.936,9.58c-1.793,3.812-3.438,9.624-4.887,16.557
	c-0.004-0.005-0.007-0.011-0.011-0.016c-6.434-8.538-23.417-13.704-34.749-13.704c-6.147,0-11.297,2.582-13.61,8.251
	C407.814,77.103,391.583,69.853,380,69.853c-4.005,0-6.723,0.811-8.789,2.827c0.045-3.188,0.07-6.046,0.07-8.495
	c0-31.254-2.856-36.673-4.146-39.259c-5.645-10.08-25.444-17.831-36.278-17.831c-10.042,0-14.157,5.418-15.691,15.502
	c-1.537,9.543-3.608,45.461-5.401,77.504c-5.394,0.252-11.826,0.751-18.549,1.542c0-24.292,0-46.753-0.998-55.294
	c-1.038-9.292-2.575-14.208-6.184-18.837C277.598,18.974,262.41,9.68,252.114,9.68c-10.043,0-15.19,5.921-16.476,15.248
	c-1.789,11.091-4.359,65.595-5.148,89.634c-7.471,3.625-13.118,9.546-13.118,18.337c0,9.834,6.935,21.204,11.331,27.375
	c0,7.001-0.251,14.756-0.251,19.384c0,10.328,2.038,18.369,7.72,24.538c6.435,7.253,19.802,12.411,32.672,12.411
	c11.829,0,17.229-5.416,19.302-15.243c1.035-5.169,1.535-18.591,1.535-29.46c5.149-0.502,10.831-1.542,16.728-2.585
	c-0.252,8.292-0.499,16.039-0.499,20.417c0,6.996,2.322,11.88,5.397,15.504c6.935,8.284,23.947,16.285,36.279,16.285
	c9.547,0,16.726-4.918,18.266-15.496c0.304-1.964,0.769-9.162,1.301-19.423c3.679,5.288,8.568,10.402,14.923,15.798
	c-12.076,8.535-21.373,19.372-21.373,36.961c0,18.584,10.831,33.046,31.168,38.455c8.469,7.754,17.729,10.088,24.699,10.088
	c30.344,0,43.746-38.502,48.359-74.133c3.831-3.136,7.791-7.387,11.653-12.321c9.162,9.348,20.695,15.654,32.631,15.654
	c17.486,0,29.347-13.415,38.356-29.422c2.037,0.502,4.359,0.752,6.685,0.752c2.473,0,4.88-0.235,7.229-0.651
	c9.515,20.342,25.824,32.446,45.524,32.446c40.141,0,72.564-51.669,72.564-81.131C679.57,125.685,669.281,113.775,655.122,113.775z"
	/>
<g>
	<path d="M651.261,124.108c-11.829,44.206-33.704,54.545-42.71,54.545c-9.724,0-14.764-12.885-16.231-26.056
		c4.071,1.004,9.834,1.215,11.331,1.215c17.264,0,30.63-29.704,30.63-53.206c0-15.251-5.643-27.379-16.222-27.379
		c-5.939,0-12.223,3.803-17.764,9.114c-3.252-1.723-7.262-2.905-10.553-2.905c-16.721,0-27.021,29.457-27.021,59.17
		c0,1.681,0.043,3.343,0.109,4.995c-2.816,3.515-6.466,6.094-11.155,6.094c-3.142,0-5.64-1.329-7.75-3.593
		c6.217-20.02,9.548-39.793,9.548-47.291c0-14.746-10.803-27.664-20.593-27.664c-13.579,0-16.443,42.055-10.979,64.408
		c-6.283,23.68-14.046,42.558-19.901,42.558c-2.045,0-3.327-2.581-3.327-10.586c0-18.083,4.609-65.38,5.15-76.467
		c0.251-5.705-13.155-13.455-21.633-13.455c-2.816,0-4.109,1.041-5.142,2.871c-2.657,5.096-8.763,35.576-9.476,67.582
		c-3.777,9.551-9.338,20.73-17.157,29.835c1.397-17.545,1.647-33.227,1.647-42.159c0-22.711-1.784-34.88-3.569-37.712
		c-2.864-3.877-15.442-8.003-21.381-8.003c-3.067,0-4.899,2.334-4.899,5.419v7.105c-3.71,23.213-14.261,69.651-20.581,69.651
		c-2.326,0-3.868-4.166-3.868-12.423c0-28.163,5.15-53.748,5.15-60.456c0-7.502-13.904-19.125-22.377-19.125
		c-3.104,0-4.107,1.29-4.644,3.12c-2.04,5.921-7.971,42.09-7.971,64.84c0,4.122,0,7.997,0.502,11.37
		c1.036,10.34,17.765,33.589,32.956,33.589c11.509,0,18.153-18.294,21.91-38.429c-0.616,13.207-1.647,26.947-3.255,39.796
		c-24.911,7.465-49.042,20.95-49.042,40.723c0,11.623,8.116,24.468,23.954,26.986c4.397,5.123,12.262,7.641,17.765,7.641
		c20.514,0,30.414-33.445,35.164-67.857c10.189-6.711,18.252-17.624,24.283-28.671c6.752,14.176,19.911,25.733,33.196,25.733
		c12.94,0,23.555-14.996,31.521-33.623c3.97,3.232,8.692,4.954,13.517,4.954c6.213,0,11.312-1.935,15.477-4.925
		c5.482,21.52,18.068,36.717,37.279,36.717c36.031,0,58.656-52.207,58.946-68.466C662.096,127.733,654.082,123.857,651.261,124.108z
		 M606.225,96.479c2.326,0,3.358,7.497,3.358,17.044c0,8.788-0.78,17.833-2.326,20.665c-2.072,0.537-4.887,0.793-8.503,0.793
		c-2.001,0-4.186-0.074-6.433-0.181C594.466,115.066,602.647,96.479,606.225,96.479z M401.667,250.268
		c-2.612-1.969-3.903-5.597-3.903-9.111c0-8.402,6.97-22.393,19.625-29.317C413.569,232.539,408.277,245.351,401.667,250.268z"/>
	<path d="M329.322,17.43c-3.074,0-3.863,1.544-4.115,3.625c-1.251,9.543-3.749,49.768-5.789,88.485
		c-12.651,0.608-30.167,1.901-46.538,4.09c0.214-13.383,0.319-26.231,0.319-36.527c0-32.547-1.284-40.546-4.358-44.961
		c-2.825-3.876-12.369-12.129-18.516-12.129c-3.111,0-4.397,1.544-4.647,3.626c-1.432,7.857-3.791,55.903-5.326,96.628
		c-7.754,2.546-12.69,5.634-12.69,9.293c0,3.77,5.363,14.964,11.581,22.142c-0.321,10.83-0.499,19.447-0.499,24.08
		c0,11.116,3.859,22.745,25.983,22.745c2.824,0,5.148-1.293,5.651-3.628c0.464-2.871,1.071-18.906,1.607-39.216
		c14.298-1.796,32.243-4.518,45.501-7.68c-0.789,17.479-1.287,31.58-1.287,37.856c0,11.124,16.981,17.583,26.234,17.583
		c2.824,0,5.15-1.29,5.686-3.624c0.997-6.461,5.143-106.713,5.143-139.511c0-14.208-0.78-29.208-2.573-32.545
		C348.122,22.848,335.505,17.43,329.322,17.43z"/>
</g>
<path fill="#FFFFFF" d="M365.444,51.122"/>
<g>
	<radialGradient id="SVGID_2_" cx="679.6815" cy="36.5832" r="19.1521" gradientUnits="userSpaceOnUse">
		<stop  offset="0" style="stop-color:#FFFFFF"/>
		<stop  offset="1" style="stop-color:#BF0D00"/>
	</radialGradient>
	<path fill="url(#SVGID_2_)" d="M698.833,36.582c0,10.575-8.562,19.154-19.157,19.154c-10.579,0-19.146-8.579-19.146-19.154
		c0-10.575,8.567-19.152,19.146-19.152C690.27,17.43,698.833,26.008,698.833,36.582z"/>
</g>
<text transform="matrix(1 0 0 1 227.6649 334.9942)" fill="#FDDE6B" font-family="'MyriadPro-BoldIt'" font-size="44.9412">Stream Together </text>
<text transform="matrix(0.583 0 0 0.583 560.6287 320.0284)" fill="#FDDE6B" font-family="'MyriadPro-BoldIt'" font-size="44.9412">SM</text>
</svg>
