<?xml version="1.0" encoding="utf-8"?>
<!-- Generator: Adobe Illustrator 17.0.0, SVG Export Plug-In . SVG Version: 6.00 Build 0)  -->
<!DOCTYPE svg PUBLIC "-//W3C//DTD SVG 1.1//EN" "http://www.w3.org/Graphics/SVG/1.1/DTD/svg11.dtd">
<svg version="1.1" id="Layer_1" xmlns="http://www.w3.org/2000/svg" xmlns:xlink="http://www.w3.org/1999/xlink" x="0px" y="0px"
	 width="768.976px" height="354.221px" viewBox="0 0 768.976 354.221" enable-background="new 0 0 768.976 354.221"
	 xml:space="preserve">
<path fill="#FDDE6B" stroke="#FFFFFF" stroke-miterlimit="10" d="M66.059,264.913c22.092,0,37.014-16.922,48.378-37.113
	c2.614,0.633,5.546,0.949,8.431,0.949c19.838,0,36.7-10.726,47.749-29.959c7.8-13.721,10.685-28.696,10.685-34.896
	c0-14.305-13.616-29.645-28.859-29.645c-4.235,0-7.167,0.675-9.104,1.309c0.991-6.2,1.307-11.404,1.307-14.98
	c0-27.7-20.153-52.823-44.141-52.823c-15.599,0-23.401,10.458-27.952,23.178c-9.74-8.827-26.602-15.029-38.957-15.029
	c-9.379,0-14.925,3.622-18.801,12.085C6.36,105.912,0.5,158.689,0.5,190.326C0.5,224.178,31.971,264.913,66.059,264.913
	L66.059,264.913z"/>
<path d="M63.557,250.113c17.129,0,31.235-19.85,41.789-44.515c5.252,4.28,11.498,6.561,17.839,6.561
	c33.413,0,42.593-42.052,42.593-49.271c0-10.929-9.18-13.686-14.954-11.974c-0.713,1.713-6.816,33.883-25.931,33.883
	c-4.12,0-7.432-1.761-10.272-4.755c8.28-26.51,12.683-52.694,12.683-62.621c0-19.525-14.34-36.629-27.258-36.629
	c-17.986,0-21.774,55.679-14.533,85.278c-8.326,31.353-18.595,56.355-26.358,56.355c-2.744,0-4.448-3.425-4.448-14.018
	c0-23.947,6.15-86.568,6.816-101.25c0.329-7.552-17.369-17.816-28.633-17.816c-3.738,0-5.443,1.379-6.813,3.803
	c-3.741,7.175-12.592,52.308-12.592,97.487C13.483,218.666,38.378,250.113,63.557,250.113L63.557,250.113z"/>
<path fill="#FDDE6B" d="M350.205,270.483c12.043,0,21.098-6.204,23.041-19.547c1.619-10.46,6.849-138.504,6.849-178.922
	c0-39.424-3.602-46.26-5.23-49.522C367.745,9.777,342.769,0,329.104,0c-12.667,0-17.858,6.834-19.792,19.554
	c-1.939,12.038-4.551,57.345-6.812,97.765c-6.804,0.317-14.917,0.947-23.398,1.945c0-30.642,0-58.975-1.259-69.749
	c-1.309-11.721-3.248-17.923-7.801-23.761c-8.119-10.771-27.277-22.496-40.265-22.496c-12.668,0-19.161,7.469-20.783,19.234
	c-2.257,13.991-5.499,82.743-6.493,113.066c-9.424,4.573-16.547,12.042-16.547,23.13c0,12.404,8.747,26.747,14.294,34.531
	c0,8.832-0.317,18.614-0.317,24.452c0,13.027,2.571,23.171,9.738,30.953c8.117,9.149,24.978,15.656,41.213,15.656
	c14.921,0,21.733-6.832,24.348-19.228c1.306-6.52,1.937-23.451,1.937-37.162c6.495-0.634,13.663-1.945,21.101-3.261
	c-0.317,10.459-0.63,20.232-0.63,25.755c0,8.825,2.929,14.986,6.808,19.558C313.19,260.391,334.65,270.483,350.205,270.483
	L350.205,270.483z M437.222,354.221c38.276,0,55.182-48.567,61.001-93.513c22.726-18.599,49.062-68.122,49.062-93.558
	c0-11.717-14.611-28.966-30.205-28.966c-4.564,0-8.432,1.268-12.994,3.578l-0.984-9.778c-0.95-10.095-2.583-17.925-6.496-23.13
	c-8.116-10.77-29.539-17.287-43.833-17.287c-7.753,0-14.249,3.257-17.168,10.408c-9.426-13.668-29.9-22.812-44.511-22.812
	c-10.366,0-13.928,4.255-17.485,17.29c-4.241,15.662-10.737,55.403-10.737,86.357c0,27.391,7.807,43.996,30.839,63.555
	c-15.233,10.766-26.96,24.436-26.96,46.623c0,23.442,13.662,41.684,39.316,48.508C416.749,351.276,428.43,354.221,437.222,354.221
	L437.222,354.221z M554.084,264.913c22.058,0,37.019-16.922,48.383-37.113c2.57,0.633,5.498,0.949,8.432,0.949
	c19.792,0,36.654-10.726,47.701-29.959c7.798-13.721,10.728-28.696,10.728-34.896c0-14.305-13.662-29.645-28.891-29.645
	c-4.244,0-7.13,0.675-9.114,1.309c1-6.2,1.302-11.404,1.302-14.98c0-27.7-20.098-52.823-44.134-52.823
	c-15.596,0-23.358,10.458-27.91,23.178c-9.732-8.827-26.64-15.029-38.955-15.029c-9.424,0-14.926,3.622-18.841,12.085
	c-8.43,17.923-14.294,70.699-14.294,102.336C488.49,224.178,519.998,264.913,554.084,264.913L554.084,264.913z M677.443,268.855
	c50.635,0,91.533-65.177,91.533-102.34c0-16.927-12.978-31.95-30.839-31.95c-1.312,0-2.568,0-4.196,0.358
	c0.317-2.622,0.633-8.145,0.633-12.082c0-28.336-14.611-52.459-38.32-52.459c-8.748,0-17.18,3.258-25.977,9.144
	c-3.245-0.997-6.496-1.313-9.732-1.313c-36.969,0-51.946,51.145-51.946,92.562C608.599,229.432,637.503,268.855,677.443,268.855
	L677.443,268.855z"/>
<g>
	<polygon points="343.71,247.674 343.71,247.674 343.71,247.674 	"/>
	<path d="M746.934,159.683c0-7.511-10.109-12.399-13.667-12.083c-14.921,55.762-42.515,68.804-53.876,68.804
		c-12.266,0-18.623-16.253-20.474-32.868c5.136,1.266,12.404,1.533,14.293,1.533c21.777,0,38.637-37.469,38.637-67.115
		c0-19.238-7.118-34.536-20.462-34.536c-7.492,0-15.418,4.797-22.408,11.497c-4.102-2.173-9.16-3.664-13.311-3.664
		c-21.092,0-34.084,37.158-34.084,74.638c0,2.12,0.054,4.216,0.137,6.299c-3.552,4.434-8.156,7.687-14.071,7.687
		c-3.964,0-7.115-1.676-9.777-4.532c7.843-25.254,12.045-50.195,12.045-59.654c0-18.6-13.627-34.897-25.977-34.897
		c-17.129,0-20.741,53.049-13.85,81.246c-7.925,29.871-17.718,53.683-25.104,53.683c-2.579,0-4.196-3.255-4.196-13.353
		c0-22.81,5.813-82.471,6.496-96.456c0.317-7.197-16.594-16.973-27.287-16.973c-3.552,0-5.184,1.313-6.486,3.621
		c-3.352,6.429-11.054,44.877-11.954,85.251c-4.764,12.048-11.779,26.149-21.641,37.635c1.762-22.131,2.078-41.912,2.078-53.18
		c0-28.648-2.251-43.998-4.502-47.57c-3.613-4.89-19.479-10.096-26.971-10.096c-3.87,0-6.18,2.945-6.18,6.835v8.963
		c-4.68,29.281-17.99,87.858-25.961,87.858c-2.934,0-4.879-5.255-4.879-15.67c0-35.526,6.496-67.798,6.496-76.261
		c0-9.463-17.539-24.125-28.227-24.125c-3.915,0-5.181,1.628-5.858,3.936c-2.574,7.468-10.055,53.093-10.055,81.79
		c0,5.2,0,10.087,0.634,14.342c1.306,13.043,22.409,42.37,41.571,42.37c14.518,0,22.899-23.077,27.638-48.475
		c-0.777,16.659-2.077,33.991-4.106,50.2c-31.423,9.416-61.862,26.426-61.862,51.368c0,14.662,10.237,30.865,30.216,34.041
		c5.547,6.463,15.468,9.639,22.409,9.639c25.877,0,38.365-42.188,44.357-85.596c12.85-8.464,23.027-22.226,30.635-36.158
		c8.518,17.878,25.115,32.452,41.87,32.452c16.323,0,29.712-18.916,39.761-42.413c5.007,4.077,10.965,6.249,17.05,6.249
		c7.836,0,14.271-2.437,19.525-6.208c6.916,27.143,22.791,46.31,47.023,46.31C718.029,246.047,746.568,180.192,746.934,159.683z
		 M676.458,112.749c2.934,0,4.236,9.457,4.236,21.5c0,11.085-0.984,22.495-2.935,26.067c-2.613,0.678-6.165,1-10.726,1
		c-2.524,0-5.281-0.094-8.115-0.228C661.625,136.195,671.945,112.749,676.458,112.749z M418.425,306.741
		c-3.295-2.483-4.923-7.06-4.923-11.493c0-10.598,8.792-28.248,24.755-36.981C433.438,284.377,426.763,300.537,418.425,306.741z"/>
	<path d="M327.168,13.035c-3.878,0-4.873,1.948-5.19,4.572c-1.578,12.038-4.729,62.778-7.302,111.617
		c-15.957,0.767-38.053,2.398-58.703,5.159c0.269-16.881,0.403-33.088,0.403-46.076c0-41.055-1.62-51.145-5.497-56.714
		c-3.563-4.889-15.602-15.299-23.356-15.299c-3.925,0-5.547,1.947-5.861,4.575c-1.806,9.911-4.782,70.517-6.719,121.889
		c-9.781,3.211-16.007,7.107-16.007,11.722c0,4.755,6.764,18.876,14.608,27.93c-0.405,13.661-0.629,24.531-0.629,30.375
		c0,14.022,4.868,28.691,32.776,28.691c3.562,0,6.493-1.631,7.128-4.576c0.585-3.621,1.351-23.848,2.028-49.468
		c18.036-2.266,40.672-5.699,57.395-9.688c-0.996,22.048-1.624,39.835-1.624,47.752c-0.001,14.03,21.42,22.178,33.092,22.178
		c3.562,0,6.496-1.627,7.173-4.571c1.258-8.149,6.487-134.61,6.487-175.981c0-17.922-0.983-36.844-3.246-41.052
		C350.882,19.869,334.967,13.035,327.168,13.035z"/>
	<polygon points="672.579,246.047 672.579,246.047 672.579,246.047 	"/>
</g>
</svg>
