<svg xmlns="http://www.w3.org/2000/svg" width="768.976" height="354.221"><path fill="#FDDE6B" stroke="#FFF" stroke-miterlimit="10" d="M66.059 264.913c22.092 0 37.014-16.922 48.378-37.113 2.614.633 5.546.949 8.431.949 19.838 0 36.7-10.726 47.749-29.959 7.8-13.721 10.685-28.696 10.685-34.896 0-14.305-13.616-29.645-28.859-29.645-4.235 0-7.167.675-9.104 1.309.991-6.2 1.307-11.404 1.307-14.98 0-27.7-20.153-52.823-44.141-52.823-15.599 0-23.401 10.458-27.952 23.178-9.74-8.827-26.602-15.029-38.957-15.029-9.379 0-14.925 3.622-18.801 12.085C6.36 105.912.5 158.689.5 190.326c0 33.852 31.471 74.587 65.559 74.587h0z"/><path d="M63.557 250.113c17.129 0 31.235-19.85 41.789-44.515 5.252 4.28 11.498 6.561 17.839 6.561 33.413 0 42.593-42.052 42.593-49.271 0-10.929-9.18-13.686-14.954-11.974-.713 1.713-6.816 33.883-25.931 33.883-4.12 0-7.432-1.761-10.272-4.755 8.28-26.51 12.683-52.694 12.683-62.621 0-19.525-14.34-36.629-27.258-36.629-17.986 0-21.774 55.679-14.533 85.278-8.326 31.353-18.595 56.355-26.358 56.355-2.744 0-4.448-3.425-4.448-14.018 0-23.947 6.15-86.568 6.816-101.25.329-7.552-17.369-17.816-28.633-17.816-3.738 0-5.443 1.379-6.813 3.803-3.741 7.175-12.592 52.308-12.592 97.487-.002 28.035 24.893 59.482 50.072 59.482z"/><path fill="#FDDE6B" d="M350.205 270.483c12.043 0 21.098-6.204 23.041-19.547 1.619-10.46 6.849-138.504 6.849-178.922 0-39.424-3.602-46.26-5.23-49.522C367.745 9.777 342.769 0 329.104 0c-12.667 0-17.858 6.834-19.792 19.554-1.939 12.038-4.551 57.345-6.812 97.765-6.804.317-14.917.947-23.398 1.945 0-30.642 0-58.975-1.259-69.749-1.309-11.721-3.248-17.923-7.801-23.761-8.119-10.771-27.277-22.496-40.265-22.496-12.668 0-19.161 7.469-20.783 19.234-2.257 13.991-5.499 82.743-6.493 113.066-9.424 4.573-16.547 12.042-16.547 23.13 0 12.404 8.747 26.747 14.294 34.531 0 8.832-.317 18.614-.317 24.452 0 13.027 2.571 23.171 9.738 30.953 8.117 9.149 24.978 15.656 41.213 15.656 14.921 0 21.733-6.832 24.348-19.228 1.306-6.52 1.937-23.451 1.937-37.162 6.495-.634 13.663-1.945 21.101-3.261-.317 10.459-.63 20.232-.63 25.755 0 8.825 2.929 14.986 6.808 19.558 8.744 10.449 30.204 20.541 45.759 20.541zm87.017 83.738c38.276 0 55.182-48.567 61.001-93.513 22.726-18.599 49.062-68.122 49.062-93.558 0-11.717-14.611-28.966-30.205-28.966-4.564 0-8.432 1.268-12.994 3.578l-.984-9.778c-.95-10.095-2.583-17.925-6.496-23.13-8.116-10.77-29.539-17.287-43.833-17.287-7.753 0-14.249 3.257-17.168 10.408-9.426-13.668-29.9-22.812-44.511-22.812-10.366 0-13.928 4.255-17.485 17.29-4.241 15.662-10.737 55.403-10.737 86.357 0 27.391 7.807 43.996 30.839 63.555-15.233 10.766-26.96 24.436-26.96 46.623 0 23.442 13.662 41.684 39.316 48.508 10.682 9.78 22.363 12.725 31.155 12.725zm116.862-89.308c22.058 0 37.019-16.922 48.383-37.113 2.57.633 5.498.949 8.432.949 19.792 0 36.654-10.726 47.701-29.959 7.798-13.721 10.728-28.696 10.728-34.896 0-14.305-13.662-29.645-28.891-29.645-4.244 0-7.13.675-9.114 1.309 1-6.2 1.302-11.404 1.302-14.98 0-27.7-20.098-52.823-44.134-52.823-15.596 0-23.358 10.458-27.91 23.178-9.732-8.827-26.64-15.029-38.955-15.029-9.424 0-14.926 3.622-18.841 12.085-8.43 17.923-14.294 70.699-14.294 102.336-.001 33.853 31.507 74.588 65.593 74.588zm123.359 3.942c50.635 0 91.533-65.177 91.533-102.34 0-16.927-12.978-31.95-30.839-31.95-1.312 0-2.568 0-4.196.358.317-2.622.633-8.145.633-12.082 0-28.336-14.611-52.459-38.32-52.459-8.748 0-17.18 3.258-25.977 9.144-3.245-.997-6.496-1.313-9.732-1.313-36.969 0-51.946 51.145-51.946 92.562 0 58.657 28.904 98.08 68.844 98.08z"/><path d="M343.71 247.674c3.562 0 6.496-1.627 7.173-4.571 1.258-8.149 6.487-134.61 6.487-175.981 0-17.922-.983-36.844-3.246-41.052-3.242-6.201-19.157-13.035-26.956-13.035-3.878 0-4.873 1.948-5.19 4.572-1.578 12.038-4.729 62.778-7.302 111.617-15.957.767-38.053 2.398-58.703 5.159.269-16.881.403-33.088.403-46.076 0-41.055-1.62-51.145-5.497-56.714-3.563-4.889-15.602-15.299-23.356-15.299-3.925 0-5.547 1.947-5.861 4.575-1.806 9.911-4.782 70.517-6.719 121.889-9.781 3.211-16.007 7.107-16.007 11.722 0 4.755 6.764 18.876 14.608 27.93-.405 13.661-.629 24.531-.629 30.375 0 14.022 4.868 28.691 32.776 28.691 3.562 0 6.493-1.631 7.128-4.576.585-3.621 1.351-23.848 2.028-49.468 18.036-2.266 40.672-5.699 57.395-9.688-.996 22.048-1.624 39.835-1.624 47.752-.001 14.03 21.42 22.178 33.092 22.178zm88.648 83.737c25.877 0 38.365-42.188 44.357-85.596 32.423-21.355 47.845-76.443 47.845-82.871 0-7.194-9.745-13.714-14.611-11.404-.855 2.761-8.925 39.325-30.032 63.906 1.762-22.131 2.078-41.912 2.078-53.18 0-28.648-2.251-43.998-4.502-47.57-3.613-4.89-19.479-10.096-26.971-10.096-3.87 0-6.18 2.945-6.18 6.835v8.963c-4.68 29.281-17.99 87.858-25.961 87.858-2.934 0-4.879-5.255-4.879-15.67 0-35.526 6.496-67.798 6.496-76.261 0-9.463-17.539-24.125-28.227-24.125-3.915 0-5.181 1.628-5.858 3.936-2.574 7.468-10.055 53.093-10.055 81.79 0 5.2 0 10.087.634 14.342 1.306 13.043 22.409 42.37 41.571 42.37 14.518 0 22.899-23.077 27.638-48.475-.777 16.659-2.077 33.991-4.106 50.2-31.423 9.416-61.862 26.426-61.862 51.368 0 14.662 10.237 30.865 30.216 34.041 5.547 6.463 15.468 9.639 22.409 9.639zm-13.933-24.67c-3.295-2.483-4.923-7.06-4.923-11.493 0-10.598 8.792-28.248 24.755-36.981-4.819 26.11-11.494 42.27-19.832 48.474zm130.795-64.632c16.323 0 29.712-18.916 39.761-42.413 5.007 4.077 10.965 6.249 17.05 6.249 31.789 0 40.571-40.057 40.571-46.94 0-10.41-8.782-13.038-14.279-11.404-.633 1.629-6.497 32.274-24.675 32.274-3.964 0-7.115-1.676-9.777-4.532 7.843-25.254 12.045-50.195 12.045-59.654 0-18.6-13.627-34.897-25.977-34.897-17.129 0-20.741 53.049-13.85 81.246-7.925 29.871-17.718 53.683-25.104 53.683-2.579 0-4.196-3.255-4.196-13.353 0-22.81 5.813-82.471 6.496-96.456.317-7.197-16.594-16.973-27.287-16.973-3.552 0-5.184 1.313-6.486 3.621-3.563 6.833-12.042 49.834-12.042 92.875 0 26.714 23.723 56.674 47.75 56.674zm123.359 3.938c45.45 0 73.989-65.855 74.355-86.364 0-7.511-10.109-12.399-13.667-12.083-14.921 55.762-42.515 68.804-53.876 68.804-12.266 0-18.623-16.253-20.474-32.868 5.136 1.266 12.404 1.533 14.293 1.533 21.777 0 38.637-37.469 38.637-67.115 0-19.238-7.118-34.536-20.462-34.536-7.492 0-15.418 4.797-22.408 11.497-4.102-2.173-9.16-3.664-13.311-3.664-21.092 0-34.084 37.158-34.084 74.638 0 43.633 17.539 80.158 50.997 80.158zm-5.546-84.731c-2.524 0-5.281-.094-8.115-.228 2.707-24.893 13.027-48.339 17.54-48.339 2.934 0 4.236 9.457 4.236 21.5 0 11.085-.984 22.495-2.935 26.067-2.613.678-6.165 1-10.726 1z"/></svg>